<?xml version="1.0" standalone="no"?>
<!DOCTYPE svg PUBLIC "-//W3C//DTD SVG 20010904//EN"
 "http://www.w3.org/TR/2001/REC-SVG-20010904/DTD/svg10.dtd">
<svg version="1.0" xmlns="http://www.w3.org/2000/svg"
 width="512.000000pt" height="512.000000pt" viewBox="0 0 512.000000 512.000000"
 preserveAspectRatio="xMidYMid meet">
<metadata>
Created by potrace 1.14, written by Peter Selinger 2001-2017
</metadata>
<g transform="translate(0.000000,512.000000) scale(0.100000,-0.100000)"
fill="#000000" stroke="none">
<path d="M2400 4785 c-382 -81 -651 -381 -686 -764 l-7 -71 -91 0 c-109 0
-149 -10 -212 -53 -66 -44 -100 -103 -125 -217 -27 -125 -26 -118 -38 -170 -5
-25 -12 -56 -15 -70 -2 -14 -39 -177 -80 -362 -41 -185 -77 -347 -80 -360 -2
-13 -9 -41 -14 -63 -6 -22 -13 -51 -16 -65 -2 -14 -50 -230 -106 -480 -56
-250 -103 -462 -105 -471 -5 -24 -46 -211 -50 -229 -6 -25 -46 -211 -50 -229
-2 -9 -11 -47 -20 -86 -9 -38 -19 -81 -22 -95 -5 -28 -62 -285 -70 -315 -3
-11 -7 -48 -8 -83 -5 -109 49 -202 149 -255 l41 -22 1744 -3 c1159 -1 1756 1
1781 8 64 17 137 78 168 140 40 81 38 130 -19 380 -27 118 -52 231 -55 250 -3
19 -7 41 -10 48 -4 13 -116 514 -128 572 -3 14 -39 177 -80 363 -42 186 -78
348 -80 360 -3 12 -20 92 -40 177 -19 85 -37 166 -40 180 -2 14 -37 169 -76
345 -40 176 -74 328 -76 339 -30 156 -69 298 -92 336 -30 49 -103 104 -160
120 -20 5 -79 10 -129 10 l-93 0 -1 28 c-7 293 -179 574 -439 715 -73 40 -151
71 -225 88 -68 16 -278 18 -345 4z m345 -170 c113 -33 213 -93 300 -180 122
-121 185 -254 201 -422 l7 -63 -693 0 -693 0 6 63 c23 240 164 446 382 553 50
24 119 50 155 58 85 18 256 14 335 -9z m895 -862 c19 -20 32 -51 40 -90 6 -32
20 -94 30 -138 15 -64 81 -359 95 -425 2 -8 38 -170 80 -360 42 -190 78 -352
80 -360 2 -8 20 -89 40 -180 21 -91 41 -183 46 -205 4 -22 22 -103 39 -180 17
-77 33 -147 35 -155 19 -90 121 -549 140 -630 81 -347 97 -434 85 -473 -7 -25
-22 -45 -43 -57 -31 -20 -65 -20 -1740 -20 -1841 0 -1759 -2 -1787 51 -19 35
-22 74 -9 121 6 24 13 54 16 68 2 14 18 86 34 160 17 74 33 145 35 156 2 12
18 82 34 155 17 73 33 146 36 163 3 16 7 32 9 36 2 4 7 22 10 41 3 19 13 63
21 99 9 36 18 76 20 90 3 14 12 54 20 90 9 36 18 76 20 90 3 14 21 95 41 180
19 85 37 166 40 180 2 14 22 106 45 205 22 99 44 198 49 220 9 44 9 41 39 175
12 52 23 106 26 120 3 14 12 54 20 90 9 36 18 76 20 90 3 14 12 54 20 90 9 36
18 76 20 90 3 14 21 95 40 180 37 164 38 166 54 247 12 56 40 100 74 113 11 5
488 8 1059 7 l1039 -2 28 -32z"/>
<path d="M1733 3314 c-25 -25 -25 -29 -20 -112 8 -112 30 -196 78 -300 61
-131 125 -214 237 -303 292 -234 694 -251 1010 -42 74 49 184 160 229 231 84
131 130 266 140 414 5 83 5 87 -20 112 -31 31 -75 34 -107 8 -18 -14 -24 -34
-32 -107 -20 -189 -79 -317 -203 -440 -262 -263 -670 -274 -947 -26 -126 114
-209 274 -223 435 -10 107 -15 123 -40 140 -35 23 -72 20 -102 -10z"/>
</g>
</svg>
