<?xml version="1.0" standalone="no"?>
<!DOCTYPE svg PUBLIC "-//W3C//DTD SVG 20010904//EN"
 "http://www.w3.org/TR/2001/REC-SVG-20010904/DTD/svg10.dtd">
<svg version="1.0" xmlns="http://www.w3.org/2000/svg"
 width="512.000000pt" height="512.000000pt" viewBox="0 0 512.000000 512.000000"
 preserveAspectRatio="xMidYMid meet">
<metadata>
Created by potrace 1.14, written by Peter Selinger 2001-2017
</metadata>
<g transform="translate(0.000000,512.000000) scale(0.100000,-0.100000)"
fill="#000000" stroke="none">
<path d="M2271 5104 c-117 -31 -236 -125 -293 -230 -51 -95 -58 -149 -58 -496
l0 -317 -62 -31 c-77 -39 -189 -111 -246 -157 -42 -35 -43 -35 -65 -17 -12 11
-24 22 -27 25 -19 24 -141 90 -202 110 -102 34 -263 34 -359 1 -127 -43 -176
-83 -466 -373 -325 -324 -376 -388 -438 -560 -40 -111 -55 -208 -50 -339 6
-220 91 -429 235 -581 68 -72 84 -69 188 35 79 79 84 87 78 117 -7 39 -31 58
-71 59 -23 0 -41 -11 -75 -45 l-44 -45 -34 48 c-46 63 -96 171 -118 257 -25
93 -25 283 -1 375 20 75 73 191 116 253 51 74 584 600 638 630 162 88 376 68
509 -47 l37 -32 -65 -74 c-89 -102 -171 -226 -228 -345 -46 -96 -110 -272
-110 -304 0 -8 -34 -49 -75 -92 -60 -62 -75 -83 -75 -107 0 -42 35 -74 75 -69
l30 4 0 -311 c-1 -345 4 -411 45 -583 25 -104 80 -253 126 -338 l35 -65 -222
-223 c-121 -122 -239 -247 -260 -279 -102 -149 -126 -378 -56 -543 37 -89 81
-148 208 -277 125 -127 159 -150 197 -129 10 5 200 191 421 413 l402 402 32
-12 c18 -7 66 -24 107 -39 41 -14 78 -29 83 -33 4 -3 20 -60 36 -126 101 -411
234 -614 404 -614 64 0 154 73 215 174 47 77 97 204 137 352 20 71 41 149 48
173 l13 45 94 34 c52 18 103 36 113 39 14 4 115 -91 421 -398 222 -221 412
-406 422 -410 42 -17 59 -5 194 131 128 128 143 148 184 232 79 164 86 325 21
488 -35 85 -93 156 -314 377 l-221 222 44 88 c66 132 109 263 141 433 15 75
19 186 19 468 l0 312 336 -335 c376 -375 362 -365 429 -297 208 209 291 516
227 838 -17 83 -84 225 -150 317 -55 78 -574 596 -641 641 -79 53 -186 87
-290 93 -150 9 -273 -31 -403 -129 l-63 -48 -42 34 c-55 44 -166 115 -244 156
l-63 32 0 313 c0 172 -5 337 -10 366 -33 177 -191 335 -369 369 -84 16 -485
12 -550 -6z m578 -147 c66 -26 147 -103 181 -172 24 -49 25 -55 28 -358 3
-295 3 -309 -15 -303 -189 57 -331 76 -523 71 -85 -2 -168 -7 -185 -10 -43 -8
-225 -52 -253 -60 l-23 -8 3 309 c3 289 5 312 24 354 44 93 133 168 228 191
17 4 132 7 256 7 204 0 230 -2 279 -21z m-74 -912 c104 -21 201 -47 273 -74
335 -122 626 -388 781 -713 38 -80 97 -257 106 -319 4 -24 8 -46 10 -50 18
-28 27 -627 12 -797 -51 -596 -516 -1114 -1109 -1236 -139 -29 -347 -39 -454
-22 -21 4 -55 9 -74 12 -74 11 -226 56 -304 89 -327 142 -587 393 -730 707
-34 74 -81 203 -90 248 -3 14 -8 36 -11 50 -27 118 -41 630 -23 845 31 361
216 711 508 956 185 156 463 277 700 305 30 3 57 8 59 10 6 6 312 -4 346 -11z
m1330 -182 c104 -31 141 -61 434 -354 316 -316 348 -358 403 -523 26 -79 31
-106 32 -206 0 -63 -2 -135 -6 -160 -15 -99 -71 -231 -137 -322 l-27 -37 -371
372 -370 372 -18 70 c-53 204 -181 438 -331 604 l-58 63 40 34 c103 89 276
126 409 87z m-2774 -2567 c84 -116 247 -268 382 -356 66 -42 67 -44 50 -63
-10 -11 -173 -175 -362 -364 l-345 -345 -97 100 c-112 116 -154 190 -172 302
-14 91 0 179 43 266 25 51 70 103 243 278 116 118 217 215 223 215 6 1 22 -14
35 -33z m2713 -180 c171 -173 218 -226 244 -277 39 -78 56 -162 48 -246 -12
-125 -51 -198 -181 -330 l-92 -95 -362 363 c-199 199 -358 365 -354 368 5 3
28 19 53 35 123 79 309 251 383 354 17 23 34 42 39 42 5 0 105 -96 222 -214z
m-1657 -421 c117 -11 234 -11 338 0 55 7 101 11 102 10 4 -2 -44 -175 -67
-245 -59 -175 -150 -320 -200 -320 -64 0 -164 185 -233 430 -39 138 -40 143
-23 137 8 -3 46 -9 83 -12z"/>
<path d="M2395 3869 c-191 -26 -381 -102 -542 -216 -63 -44 -81 -73 -69 -110
3 -10 131 -144 285 -297 l279 -279 189 -1 c103 -1 201 1 216 4 20 3 109 86
307 285 312 312 311 309 246 369 -86 78 -304 185 -451 220 -144 34 -322 43
-460 25z m310 -140 c22 -4 57 -10 79 -13 86 -14 292 -97 354 -145 l23 -17
-222 -222 c-122 -122 -229 -222 -238 -223 -22 -1 -273 -1 -287 0 -6 1 -111
101 -233 223 l-222 222 23 17 c64 49 264 130 354 145 22 3 59 10 84 14 55 10
230 9 285 -1z"/>
<path d="M1591 3394 c-40 -29 -136 -196 -181 -317 -66 -177 -98 -483 -56 -525
15 -15 53 -17 322 -20 257 -2 308 -1 326 12 25 18 178 282 178 307 0 25 -27
54 -286 314 -149 148 -242 234 -258 237 -14 3 -34 -1 -45 -8z m240 -365 l190
-190 -27 -47 c-14 -26 -36 -63 -47 -84 l-20 -36 -223 0 c-215 0 -226 2 -226
28 0 66 18 179 43 265 18 63 105 255 115 255 2 0 90 -86 195 -191z"/>
<path d="M3453 3387 c-40 -31 -481 -475 -500 -503 -19 -30 -12 -61 33 -130 18
-30 34 -56 34 -58 0 -14 82 -141 98 -152 15 -11 82 -13 318 -13 357 0 344 -4
348 102 4 120 -22 298 -61 407 -61 174 -159 340 -212 358 -24 9 -34 7 -58 -11z
m97 -292 c32 -70 66 -176 75 -232 3 -21 7 -48 9 -60 3 -11 6 -45 7 -74 l3 -54
-225 -1 -225 -2 -15 27 c-8 14 -30 52 -47 83 l-33 57 192 192 191 191 21 -34
c11 -18 32 -60 47 -93z"/>
<path d="M2374 2780 c-28 -11 -197 -303 -197 -339 0 -28 151 -297 182 -325 17
-16 42 -18 201 -18 155 0 184 3 200 17 18 16 121 187 167 277 l24 47 -20 43
c-11 24 -31 61 -43 83 -101 173 -121 206 -131 212 -16 11 -357 13 -383 3z
m360 -231 c31 -53 56 -101 56 -106 0 -6 -25 -54 -56 -107 l-56 -96 -44 -1
c-206 -4 -184 -12 -248 97 -31 53 -56 101 -56 106 0 5 25 53 56 106 l56 98
118 0 118 -1 56 -96z"/>
<path d="M1404 2352 c-59 -6 -69 -30 -67 -152 4 -227 73 -450 200 -642 46 -70
82 -90 120 -69 10 5 132 124 271 263 269 271 270 273 234 333 -10 17 -30 50
-44 75 -60 107 -98 168 -112 179 -11 9 -88 13 -293 14 -153 1 -292 1 -309 -1z
m563 -209 c21 -38 41 -75 45 -84 8 -21 -367 -399 -381 -384 -21 21 -89 174
-109 245 -25 85 -51 246 -44 273 4 16 23 17 227 17 l223 0 39 -67z"/>
<path d="M3158 2352 c-45 -4 -56 -17 -147 -174 -98 -170 -116 -127 185 -429
285 -285 297 -294 346 -244 46 46 31 67 -218 316 l-226 226 47 82 48 81 166 1
c91 0 188 1 214 2 27 1 54 -1 60 -5 13 -8 11 -66 -4 -153 -23 -129 -23 -141 2
-164 48 -44 109 -14 123 61 3 18 8 44 11 58 9 42 18 161 19 233 0 112 12 108
-315 110 -151 1 -291 1 -311 -1z"/>
<path d="M2350 1913 c-8 -3 -140 -130 -292 -283 -316 -316 -312 -309 -236
-375 109 -93 320 -189 494 -224 327 -67 655 1 939 192 72 49 84 63 85 101 0
24 -42 70 -281 310 l-281 281 -206 2 c-114 0 -214 -1 -222 -4z m587 -356 c169
-168 220 -224 212 -234 -6 -7 -30 -23 -52 -35 -327 -181 -698 -189 -1032 -21
-126 63 -136 36 116 288 l221 222 156 1 157 0 222 -221z"/>
<path d="M659 2602 c-59 -56 -69 -102 -29 -134 37 -30 67 -23 121 30 59 56 71
96 39 130 -35 37 -74 29 -131 -26z"/>
</g>
</svg>
