<?xml version="1.0" standalone="no"?>
<!DOCTYPE svg PUBLIC "-//W3C//DTD SVG 20010904//EN"
 "http://www.w3.org/TR/2001/REC-SVG-20010904/DTD/svg10.dtd">
<svg version="1.0" xmlns="http://www.w3.org/2000/svg"
 width="512.000000pt" height="512.000000pt" viewBox="0 0 512.000000 512.000000"
 preserveAspectRatio="xMidYMid meet">
<metadata>
Created by potrace 1.14, written by Peter Selinger 2001-2017
</metadata>
<g transform="translate(0.000000,512.000000) scale(0.100000,-0.100000)"
fill="#000000" stroke="none">
<path d="M2461 5103 c-168 -57 -308 -255 -377 -532 -22 -92 -39 -208 -35 -249
0 -7 5 -11 9 -8 10 6 171 42 222 50 176 25 416 26 540 1 14 -3 52 -10 85 -15
34 -5 83 -16 110 -25 28 -8 52 -15 54 -15 2 0 1 28 -3 63 -37 351 -181 626
-373 714 -69 32 -167 39 -232 16z m25 -408 c29 -29 30 -45 5 -76 -15 -19 -28
-23 -81 -24 -44 -1 -68 3 -80 14 -29 25 -33 55 -10 83 17 22 28 26 81 27 51 0
64 -3 85 -24z m304 5 c24 -24 26 -63 4 -84 -18 -18 -15 -17 -69 -22 -49 -3
-101 12 -109 32 -23 59 13 94 94 94 47 0 64 -4 80 -20z"/>
<path d="M2408 4255 c-2 -1 -30 -5 -63 -8 -135 -13 -271 -48 -292 -76 -6 -8
-10 -36 -8 -61 2 -25 4 -61 4 -80 2 -53 14 -67 47 -52 39 18 210 62 274 70 91
12 350 7 425 -7 39 -7 112 -27 163 -43 52 -16 96 -27 99 -25 2 3 7 48 10 100
6 92 5 95 -18 110 -25 16 -117 42 -184 51 -22 3 -69 10 -105 15 -60 8 -344 13
-352 6z"/>
<path d="M2425 3919 c-120 -16 -189 -32 -280 -65 -77 -28 -229 -109 -301 -160
-62 -44 -64 -47 -50 -69 8 -12 101 -159 207 -326 105 -167 195 -306 200 -309
14 -10 709 -4 718 5 5 6 88 147 184 315 144 251 180 308 206 320 l31 16 -47
35 c-145 107 -351 198 -513 225 -14 3 -38 7 -55 11 -43 9 -241 10 -300 2z"/>
<path d="M1163 3554 c-135 -27 -268 -128 -409 -309 -147 -190 -297 -505 -334
-704 -34 -182 31 -284 160 -248 89 24 241 161 401 362 42 52 94 147 206 375
82 168 172 342 200 387 l52 82 -52 25 c-72 35 -149 45 -224 30z"/>
<path d="M1647 3525 c-271 -263 -465 -715 -493 -1145 l-4 -75 294 0 295 0 103
179 c57 98 114 197 127 220 13 22 45 79 73 125 27 46 47 89 45 96 -4 9 -107
174 -340 540 -28 44 -54 83 -57 88 -4 4 -23 -9 -43 -28z"/>
<path d="M3389 3500 c-18 -33 -37 -60 -41 -60 -5 0 -8 -4 -8 -9 0 -5 -72 -122
-159 -261 l-160 -253 23 -36 c13 -20 34 -56 48 -81 101 -179 267 -464 279
-478 13 -15 43 -17 304 -17 l290 1 1 45 c1 42 -15 177 -31 274 -12 68 -73 272
-107 353 -63 155 -157 313 -257 436 -56 70 -130 146 -141 146 -3 0 -22 -27
-41 -60z"/>
<path d="M3875 3552 c-48 -4 -148 -32 -169 -47 -18 -13 -17 -17 21 -77 45 -71
141 -259 267 -522 94 -196 158 -286 319 -449 155 -158 265 -204 348 -146 80
56 56 274 -58 529 -49 110 -57 126 -95 189 -21 34 -38 65 -38 68 0 8 -63 95
-121 168 -163 202 -325 300 -474 287z"/>
<path d="M2163 2785 c-23 -38 -89 -153 -148 -255 -59 -102 -120 -209 -137
-237 l-29 -53 49 -82 c27 -46 93 -159 147 -253 54 -93 112 -194 129 -222 l31
-53 355 0 356 0 54 93 c30 50 109 188 177 306 l123 213 -101 177 c-56 97 -113
196 -127 221 -13 25 -28 50 -32 55 -4 6 -20 33 -35 60 -15 28 -36 61 -46 75
l-17 25 -355 0 -354 0 -40 -70z"/>
<path d="M1155 2089 c3 -50 8 -96 10 -103 2 -6 7 -29 10 -51 24 -173 76 -339
161 -524 54 -115 156 -273 238 -366 114 -130 107 -127 149 -63 188 290 368
582 364 592 -3 7 -69 123 -147 257 -79 134 -155 267 -171 294 l-28 50 -296 3
-297 2 7 -91z"/>
<path d="M3349 2132 c-14 -26 -91 -161 -172 -299 -81 -139 -148 -256 -149
-261 -4 -11 393 -642 404 -642 4 0 33 26 63 58 271 287 437 678 470 1110 l7
82 -299 0 -298 0 -26 -48z"/>
<path d="M2190 1480 c-9 -14 -93 -155 -185 -315 -92 -159 -176 -301 -185 -314
l-18 -25 57 -40 c130 -92 310 -167 481 -202 90 -18 263 -23 368 -11 129 15
333 81 431 138 72 43 191 124 191 131 0 8 -350 568 -400 638 l-17 25 -353 0
-352 0 -18 -25z"/>
<path d="M1193 1189 c-177 -365 -184 -614 -16 -621 80 -3 184 72 351 253 l33
36 -31 34 c-90 96 -201 249 -266 365 l-21 37 -50 -104z"/>
<path d="M3856 1256 c-9 -14 -16 -27 -16 -30 0 -8 -101 -159 -139 -206 -19
-25 -59 -70 -89 -102 -52 -53 -54 -57 -39 -78 26 -37 141 -153 183 -184 21
-17 41 -33 44 -36 14 -17 105 -50 138 -50 47 0 78 21 98 68 15 37 22 151 11
188 -4 10 -9 33 -11 49 -12 71 -114 331 -152 388 -10 16 -12 16 -28 -7z"/>
<path d="M2395 415 c36 -166 77 -332 91 -360 20 -44 46 -59 88 -51 51 10 64
44 112 285 16 79 23 117 27 133 1 5 -66 10 -160 11 -157 2 -162 1 -158 -18z"/>
</g>
</svg>
