<?xml version="1.0" standalone="no"?>
<!DOCTYPE svg PUBLIC "-//W3C//DTD SVG 20010904//EN"
 "http://www.w3.org/TR/2001/REC-SVG-20010904/DTD/svg10.dtd">
<svg version="1.0" xmlns="http://www.w3.org/2000/svg"
 width="512.000000pt" height="512.000000pt" viewBox="0 0 512.000000 512.000000"
 preserveAspectRatio="xMidYMid meet">
<metadata>
Created by potrace 1.14, written by Peter Selinger 2001-2017
</metadata>
<g transform="translate(0.000000,512.000000) scale(0.100000,-0.100000)"
fill="#000000" stroke="none">
<path d="M2410 5101 c-290 -78 -517 -355 -583 -713 -16 -84 -20 -259 -8 -325
10 -50 7 -54 -44 -82 -52 -28 -75 -42 -99 -63 -18 -16 -50 -18 -345 -18 -179
-1 -355 -3 -391 -6 -217 -19 -462 -135 -623 -296 -68 -68 -157 -178 -157 -194
0 -4 -7 -15 -16 -25 -26 -29 -90 -189 -114 -284 -12 -49 -24 -132 -26 -183 -4
-115 14 -160 76 -192 37 -19 58 -20 445 -20 l406 0 -8 -77 c-10 -97 -10 -356
-1 -445 11 -103 46 -262 83 -375 l33 -102 -37 -41 c-20 -23 -62 -69 -94 -103
-50 -53 -180 -235 -183 -255 0 -4 -12 -32 -26 -62 -24 -51 -56 -149 -64 -195
-51 -287 -12 -527 123 -756 56 -97 139 -198 204 -250 40 -31 110 -46 150 -30
33 12 110 90 252 254 10 12 33 38 50 57 18 19 88 98 157 175 69 77 144 160
166 185 23 25 53 58 66 74 l25 30 84 -38 c85 -39 260 -100 314 -110 17 -3 64
-11 107 -17 l76 -12 4 -106 c3 -93 6 -110 27 -138 26 -35 85 -63 129 -63 36 1
85 29 114 65 20 26 23 42 26 137 l4 108 26 1 c15 0 34 2 42 4 204 41 290 67
429 131 l84 38 30 -35 c31 -35 133 -149 222 -249 28 -30 84 -93 125 -139 41
-46 80 -89 85 -95 6 -6 48 -54 95 -106 121 -135 137 -148 184 -155 71 -9 95 2
171 79 139 140 225 296 276 497 24 96 34 328 17 400 -28 125 -45 181 -74 252
-34 81 -104 200 -149 252 -34 39 -113 129 -158 179 l-35 39 25 71 c21 63 59
205 69 261 2 11 6 34 8 50 22 118 28 401 13 543 l-7 72 405 0 c432 0 440 1
486 49 69 73 38 334 -66 557 -125 265 -396 488 -679 559 -38 9 -79 19 -90 22
-12 4 -190 8 -396 10 l-375 4 -60 38 c-33 21 -74 46 -91 56 -29 16 -31 21 -25
54 13 76 5 295 -13 376 -61 272 -223 505 -430 618 -125 69 -314 93 -446 58z"/>
</g>
</svg>
